<svg width="372" height="337" viewBox="0 0 372 337" fill="none" xmlns="http://www.w3.org/2000/svg"><g filter="url(#filter0_d_4740_933)" fill="#07130E"><path d="M244.789 177.655h4.167v3.6h-4.167v6.945c0 .716.2 1.253.6 1.611.4.357 1.021.537 1.863.537.316 0 .61-.032.884-.095.273-.063.547-.138.82-.222v3.6c-.274.147-.663.262-1.168.347-.484.084-1.031.126-1.642.126-2.062 0-3.599-.495-4.609-1.484-.989-1.01-1.483-2.536-1.483-4.577v-6.788h-3v-3.6h3v-3.598l4.735-1.769v5.367Zm-61.814-.315c1.789 0 3.346.347 4.672 1.042 1.347.694 2.389 1.663 3.125 2.904.737 1.242 1.106 2.695 1.106 4.358 0 1.662-.379 3.136-1.137 4.419-.736 1.263-1.779 2.253-3.126 2.968-1.326.695-2.873 1.041-4.64 1.041-1.768 0-3.326-.346-4.673-1.041-1.326-.715-2.368-1.705-3.125-2.968-.737-1.283-1.106-2.757-1.106-4.419 0-1.663.369-3.116 1.106-4.358.757-1.241 1.799-2.21 3.125-2.904 1.347-.695 2.905-1.042 4.673-1.042Zm29.993 0c1.662 0 3.104.337 4.325 1.011 1.221.673 2.168 1.61 2.842 2.809.673 1.2 1.01 2.61 1.01 4.231 0 .336-.011.652-.032.947-.021.273-.052.536-.094.789h-11.943c.139.99.447 1.769.924 2.336.695.8 1.726 1.2 3.094 1.2.757 0 1.411-.126 1.958-.379.547-.252.957-.663 1.23-1.231h4.452c-.526 1.557-1.431 2.789-2.714 3.694-1.263.884-2.895 1.325-4.895 1.325-1.789 0-3.346-.346-4.672-1.041-1.326-.715-2.357-1.705-3.094-2.968-.715-1.262-1.074-2.715-1.074-4.357 0-1.663.359-3.115 1.074-4.356.737-1.263 1.757-2.242 3.062-2.937 1.305-.716 2.821-1.073 4.547-1.073Zm16.433 0c2.126 0 3.821.431 5.083 1.294 1.263.842 1.958 2.021 2.084 3.536h-4.23c-.084-.547-.379-.957-.884-1.231-.505-.294-1.221-.442-2.147-.442-.842 0-1.473.127-1.894.379-.4.231-.6.568-.601 1.01 0 .379.17.684.506.916.337.21.895.4 1.673.568l2.905.6c1.62.336 2.841.968 3.662 1.894.841.905 1.263 1.978 1.263 3.22 0 1.579-.621 2.81-1.863 3.694-1.221.863-2.957 1.294-5.209 1.294-2.357 0-4.231-.473-5.62-1.42-1.389-.947-2.146-2.252-2.273-3.915h4.231c.105.716.463 1.263 1.073 1.642.632.358 1.495.537 2.589.537.989 0 1.705-.138 2.147-.411.463-.295.695-.705.695-1.232 0-.399-.138-.704-.411-.915-.253-.231-.727-.421-1.421-.568l-2.589-.537c-1.915-.4-3.326-.999-4.231-1.799-.905-.821-1.357-1.873-1.357-3.157 0-1.558.6-2.768 1.8-3.631 1.2-.884 2.873-1.326 5.019-1.326Zm51.791 0c2.315 0 4.083.515 5.304 1.547 1.221 1.031 1.831 2.516 1.831 4.452v7.103c0 .526.032 1.063.095 1.61.084.526.21 1.094.379 1.705h-4.737c-.126-.463-.22-.958-.283-1.484-.027-.346-.046-.729-.055-1.148-.448.866-1.05 1.544-1.808 2.032-.947.611-2.105.915-3.473.915-1.599 0-2.873-.399-3.82-1.199-.947-.821-1.421-1.905-1.421-3.252 0-1.494.558-2.694 1.674-3.599 1.136-.926 2.715-1.526 4.735-1.799l3.979-.562v-.828c0-.652-.221-1.158-.663-1.516-.421-.378-1.053-.567-1.895-.567-.8 0-1.442.137-1.926.41-.463.274-.768.673-.916 1.199h-4.514c.21-1.452.958-2.651 2.242-3.598 1.284-.947 3.041-1.421 5.272-1.421Zm14.924 2.891c.32-.747.834-1.364 1.547-1.849 1.01-.695 2.274-1.042 3.789-1.042 1.452 0 2.705.347 3.757 1.042 1.073.673 1.895 1.631 2.463 2.873.589 1.242.884 2.705.884 4.389 0 1.704-.306 3.188-.916 4.451-.611 1.262-1.463 2.242-2.557 2.936-1.094.695-2.389 1.041-3.884 1.041-1.536 0-2.788-.357-3.757-1.073-.667-.504-1.14-1.139-1.421-1.904v2.662h-4.64v-22.732h4.735v9.206Zm20.752-2.891c2.126 0 3.82.431 5.083 1.294 1.263.842 1.958 2.021 2.084 3.536h-4.23c-.085-.547-.38-.957-.885-1.231-.505-.294-1.221-.442-2.147-.442-.841 0-1.473.126-1.894.379-.4.231-.6.568-.6 1.01 0 .379.168.684.505.916.337.21.895.4 1.674.568l2.904.6c1.621.336 2.842.968 3.662 1.894.842.905 1.263 1.978 1.263 3.22 0 1.579-.62 2.81-1.862 3.694-1.221.863-2.957 1.294-5.209 1.294-2.357 0-4.231-.473-5.62-1.42-1.389-.947-2.147-2.252-2.274-3.915h4.231c.105.716.464 1.263 1.074 1.642.631.358 1.495.537 2.589.537.989 0 1.704-.138 2.146-.411.463-.295.695-.705.695-1.232 0-.399-.137-.704-.411-.915-.252-.231-.726-.421-1.42-.568l-2.589-.537c-1.915-.4-3.326-.999-4.231-1.799-.905-.821-1.357-1.873-1.357-3.157 0-1.558.6-2.768 1.8-3.631 1.199-.884 2.872-1.326 5.019-1.326Zm-143.385-2.589h-11.176v6.472h10.45v3.725h-10.45v8.809h-4.862v-22.732h16.038v3.726Zm29.727 2.589c.4 0 .695.042.885.126v4.42c-.105-.042-.253-.063-.443-.063-.189-.021-.421-.032-.694-.032-1.515 0-2.631.274-3.347.821-.715.526-1.073 1.442-1.073 2.747v8.398h-4.736v-16.102h4.641v2.953c.377-.919.892-1.651 1.547-2.195.863-.715 1.936-1.073 3.22-1.073Zm57.971 12.691h10.923v3.726h-15.786v-22.732h4.863v19.006Zm19.221-3.125c-.841.127-1.462.358-1.862.695-.4.336-.599.799-.6 1.388 0 .526.19.927.569 1.2.379.274.883.411 1.514.411.99 0 1.832-.263 2.527-.789.694-.548 1.042-1.179 1.042-1.895v-1.5l-3.19.49Zm-97.427-5.841c-1.116 0-2.063.4-2.842 1.2-.758.799-1.136 1.915-1.136 3.346 0 .99.178 1.842.536 2.558.358.694.832 1.231 1.421 1.61.61.379 1.284.569 2.021.569.736 0 1.4-.19 1.989-.569.61-.379 1.094-.916 1.452-1.61.358-.716.536-1.568.536-2.558 0-1.452-.389-2.568-1.168-3.346-.757-.8-1.694-1.2-2.809-1.2Zm116.836.063c-1.095 0-2.001.4-2.716 1.2-.695.779-1.041 1.905-1.041 3.378s.346 2.61 1.041 3.41c.715.779 1.642 1.168 2.778 1.168 1.116 0 2.021-.4 2.716-1.2.694-.8 1.042-1.936 1.042-3.409 0-1.474-.359-2.599-1.074-3.378-.695-.779-1.61-1.169-2.746-1.169Zm-86.907-.378c-1.241 0-2.209.421-2.904 1.263-.407.509-.691 1.171-.852 1.988h7.206c-.081-1.018-.388-1.787-.923-2.305-.611-.631-1.453-.946-2.527-.946Zm-20.042-31.096c2.315 0 4.083.516 5.304 1.547s1.831 2.515 1.831 4.451v7.104c0 .526.032 1.063.095 1.61.084.526.21 1.095.379 1.705h-4.736c-.126-.463-.221-.957-.284-1.483-.028-.346-.046-.729-.055-1.148-.448.866-1.05 1.543-1.808 2.032-.947.61-2.105.915-3.473.915-1.599 0-2.873-.4-3.82-1.199-.947-.821-1.42-1.906-1.42-3.252 0-1.495.557-2.695 1.673-3.6 1.136-.926 2.715-1.525 4.735-1.799l3.979-.561v-.829c0-.652-.221-1.157-.663-1.515-.421-.379-1.053-.569-1.895-.569-.8.001-1.442.138-1.926.412-.463.273-.767.673-.915 1.199h-4.514c.21-1.452.957-2.652 2.241-3.599 1.284-.947 3.041-1.421 5.272-1.421Zm17.112 0c1.41 0 2.673.263 3.789.789 1.136.506 2.062 1.211 2.778 2.116.737.905 1.21 1.967 1.421 3.188h-4.578c-.232-.778-.653-1.368-1.263-1.768-.589-.399-1.284-.599-2.084-.599-.758 0-1.421.189-1.989.568-.547.379-.968.915-1.263 1.61-.295.694-.441 1.515-.441 2.463 0 .947.146 1.768.441 2.462.295.695.716 1.232 1.263 1.611.568.379 1.231.567 1.989.567.8 0 1.495-.2 2.084-.599.61-.4 1.031-.989 1.263-1.768h4.578c-.211 1.221-.684 2.283-1.421 3.188-.716.905-1.642 1.621-2.778 2.147-1.116.505-2.379.758-3.789.758-1.684 0-3.168-.358-4.452-1.074-1.283-.715-2.294-1.704-3.031-2.967-.715-1.263-1.073-2.705-1.073-4.325 0-1.621.358-3.063 1.073-4.326.737-1.263 1.748-2.252 3.031-2.967 1.284-.716 2.768-1.074 4.452-1.074Zm-41.953-6.314c2.021 0 3.652.515 4.894 1.547 1.242 1.031 1.862 2.431 1.862 4.199 0 1.115-.263 2.073-.789 2.873-.526.8-1.231 1.41-2.115 1.831-.224.107-.455.2-.692.279.372.117.729.265 1.071.448.968.505 1.736 1.22 2.305 2.146.568.905.852 1.978.852 3.22 0 1.242-.294 2.337-.884 3.284-.568.926-1.379 1.641-2.431 2.146-1.032.506-2.252.758-3.662.758h-10.987V143.34h10.576Zm14.392 22.731h-4.735V143.34h4.735v22.731Zm42.146-9.674 5.43-6.427h5.462l-6.907 7.616 7.223 8.485h-5.621l-5.587-6.986v6.986h-4.736V143.34h4.736v13.057Zm-32.486 2.824c-.842.126-1.463.357-1.863.694-.4.337-.6.8-.6 1.389 0 .526.19.926.569 1.2.379.273.884.41 1.515.41.989 0 1.831-.263 2.526-.789.694-.547 1.042-1.179 1.042-1.895v-1.499l-3.189.49Zm-29.766 3.378h4.988c1.052 0 1.842-.285 2.368-.853.547-.589.821-1.399.821-2.431 0-1.052-.295-1.883-.884-2.494-.569-.61-1.389-.916-2.462-.916h-4.831v6.694Zm0-10.166h4.578c.989 0 1.737-.232 2.242-.695.526-.484.789-1.19.789-2.116 0-.926-.253-1.62-.758-2.083-.484-.484-1.21-.727-2.179-.727h-4.672v5.621ZM115.593 163.564h-10.125L95.3428 149.3l-31.585 44.448h10.1465l21.4375-30.183h10.1252l-21.4377 30.183h10.1728l21.3889-30.184v14.264l-11.27 15.92v8.278H78.1494l-.001.001h-10.125l.001-.001H47.7109l47.6319-67.053 20.2502 28.591Zm27.318 38.462h-15.983v-8.246l-11.335-15.952v-14.264l27.318 38.462Z"/></g><defs><filter id="filter0_d_4740_933" x="44.7109" y="134.973" width="282.578" height="73.0547" filterUnits="userSpaceOnUse" color-interpolation-filters="sRGB"><feFlood flood-opacity="0" result="BackgroundImageFix"/><feColorMatrix in="SourceAlpha" values="0 0 0 0 0 0 0 0 0 0 0 0 0 0 0 0 0 0 127 0" result="hardAlpha"/><feOffset dy="3"/><feGaussianBlur stdDeviation="1.5"/><feComposite in2="hardAlpha" operator="out"/><feColorMatrix values="0 0 0 0 0 0 0 0 0 0 0 0 0 0 0 0 0 0 0.25 0"/><feBlend in2="BackgroundImageFix" result="effect1_dropShadow_4740_933"/><feBlend in="SourceGraphic" in2="effect1_dropShadow_4740_933" result="shape"/></filter></defs></svg>